<?xml version="1.0" encoding="UTF-8" standalone="no"?>
<svg
   xmlns:dc="http://purl.org/dc/elements/1.1/"
   xmlns:cc="http://creativecommons.org/ns#"
   xmlns:rdf="http://www.w3.org/1999/02/22-rdf-syntax-ns#"
   xmlns:svg="http://www.w3.org/2000/svg"
   xmlns="http://www.w3.org/2000/svg"
   xmlns:xlink="http://www.w3.org/1999/xlink"
   xmlns:sodipodi="http://sodipodi.sourceforge.net/DTD/sodipodi-0.dtd"
   xmlns:inkscape="http://www.inkscape.org/namespaces/inkscape"
   id="svg1710"
   version="1.1"
   viewBox="0 0 264.58333 264.58334"
   height="1000"
   width="1000"
   inkscape:version="1.0.1 (3bc2e813f5, 2020-09-07)"
   sodipodi:docname="brand-light.svg">
  <title
     id="title862">brand</title>
  <defs
     id="defs1704">
    <linearGradient
       inkscape:collect="always"
       id="linearGradient3218">
      <stop
         style="stop-color:#00097c;stop-opacity:1;"
         offset="0"
         id="stop3214" />
      <stop
         style="stop-color:#00ffff;stop-opacity:1"
         offset="1"
         id="stop3216" />
    </linearGradient>
    <linearGradient
       inkscape:collect="always"
       xlink:href="#linearGradient3218"
       id="linearGradient3220"
       x1="417.52539"
       y1="889.40039"
       x2="722.48633"
       y2="272.83008"
       gradientUnits="userSpaceOnUse"
       gradientTransform="matrix(0.36744915,0,0,0.36744915,-51.067621,-36.514731)" />
  </defs>
  <sodipodi:namedview
     inkscape:snap-global="true"
     id="base"
     pagecolor="#ffffff"
     bordercolor="#666666"
     borderopacity="1.0"
     inkscape:pageopacity="0.0"
     inkscape:pageshadow="2"
     inkscape:zoom="0.32"
     inkscape:cx="412.86005"
     inkscape:cy="522.80907"
     inkscape:document-units="px"
     inkscape:current-layer="layer1"
     inkscape:document-rotation="0"
     showgrid="false"
     units="px"
     inkscape:snap-intersection-paths="true"
     inkscape:snap-smooth-nodes="true"
     inkscape:snap-nodes="false"
     inkscape:snap-bbox="true"
     inkscape:bbox-paths="false"
     inkscape:snap-bbox-edge-midpoints="false"
     inkscape:bbox-nodes="true"
     inkscape:snap-bbox-midpoints="true"
     inkscape:object-paths="true"
     inkscape:snap-midpoints="true"
     inkscape:window-width="1366"
     inkscape:window-height="705"
     inkscape:window-x="-8"
     inkscape:window-y="-8"
     inkscape:window-maximized="1"
     inkscape:object-nodes="true" />
  <metadata
     id="metadata1707">
    <rdf:RDF>
      <cc:Work
         rdf:about="">
        <dc:format>image/svg+xml</dc:format>
        <dc:type
           rdf:resource="http://purl.org/dc/dcmitype/StillImage" />
        <dc:title>brand</dc:title>
      </cc:Work>
    </rdf:RDF>
  </metadata>
  <g
     inkscape:label="Layer 1"
     inkscape:groupmode="layer"
     id="layer1">
    <circle
       style="fill:#4000bd;stroke:none;stroke-width:1.55231;stroke-linecap:round;stroke-miterlimit:6.7;fill-opacity:1"
       id="path844"
       cx="132.29167"
       cy="132.29167"
       r="132.29167" />
    <path
       id="path2936"
       style="color:#000000;font-style:normal;font-variant:normal;font-weight:normal;font-stretch:normal;font-size:medium;line-height:normal;font-family:sans-serif;font-variant-ligatures:normal;font-variant-position:normal;font-variant-caps:normal;font-variant-numeric:normal;font-variant-alternates:normal;font-variant-east-asian:normal;font-feature-settings:normal;font-variation-settings:normal;text-indent:0;text-align:start;text-decoration:none;text-decoration-line:none;text-decoration-style:solid;text-decoration-color:#000000;letter-spacing:normal;word-spacing:normal;text-transform:none;writing-mode:lr-tb;direction:ltr;text-orientation:mixed;dominant-baseline:auto;baseline-shift:baseline;text-anchor:start;white-space:normal;shape-padding:0;shape-margin:0;inline-size:0;clip-rule:nonzero;display:inline;overflow:visible;visibility:visible;isolation:auto;mix-blend-mode:normal;color-interpolation:sRGB;color-interpolation-filters:linearRGB;solid-color:#000000;solid-opacity:1;vector-effect:none;fill:#ffffff;fill-opacity:1;fill-rule:nonzero;stroke:none;stroke-width:6.27711;stroke-linecap:butt;stroke-linejoin:miter;stroke-miterlimit:4;stroke-dasharray:none;stroke-dashoffset:0;stroke-opacity:1;paint-order:stroke markers fill;color-rendering:auto;image-rendering:auto;shape-rendering:auto;text-rendering:auto;enable-background:accumulate;stop-color:#000000"
       d="m 132.28938,27.652116 c -0.73843,1.2e-5 -1.47479,0.01 -2.20961,0.02555 -0.10532,0.0021 -0.21044,0.0041 -0.31559,0.006 -0.67849,0.01605 -1.35552,0.03905 -2.03077,0.06813 -0.16184,0.0071 -0.32329,0.01384 -0.4849,0.02154 -0.64872,0.03094 -1.29602,0.06751 -1.94162,0.110206 -0.18404,0.01231 -0.36767,0.02601 -0.55152,0.03907 -0.62321,0.04455 -1.24528,0.09236 -1.86548,0.147775 -0.20845,0.01869 -0.41617,0.0403 -0.62415,0.06011 -0.46025,0.04393 -0.9196,0.09089 -1.37806,0.140762 -0.37973,0.04126 -0.75867,0.08465 -1.13712,0.129741 -0.38375,0.04608 -0.76666,0.09398 -1.14914,0.144269 -0.4707,0.06154 -0.94039,0.126679 -1.40911,0.194362 -0.2981,0.04319 -0.59627,0.08648 -0.89367,0.132245 -0.40771,0.06251 -0.81463,0.127511 -1.22077,0.194863 -18.849379,3.120283 -35.996094,11.277919 -50.014484,23.044346 0.01979,0 0.03579,5e-4 0.0536,5e-4 -9.293561,7.798178 -17.215273,17.179349 -23.347914,27.725069 2.105044,-3.639889 4.424003,-7.155889 6.947918,-10.518057 -9.392976,12.44655 -16.07059,27.057284 -19.150105,42.951873 0.223325,-1.14157 0.467991,-2.27865 0.729856,-3.41185 -1.158706,5.04913 -1.951049,10.23697 -2.347864,15.53338 -0.0012,0.0154 -0.0021,0.0347 -0.0035,0.052 -0.03518,0.47295 -0.06685,0.94649 -0.09568,1.42114 -0.01231,0.20406 -0.02388,0.40752 -0.03506,0.61164 -0.02642,0.4819 -0.04973,0.96459 -0.06963,1.44819 -0.0047,0.10774 -0.01035,0.216 -0.01453,0.3241 -4.28e-4,0.0132 -5.86e-4,0.0229 -9.69e-4,0.034 -0.02155,0.57204 -0.03727,1.14539 -0.04959,1.71968 -0.0033,0.15437 -0.0062,0.30898 -0.0086,0.46337 -0.01033,0.60645 -0.01803,1.21353 -0.01803,1.82239 0,0.45088 0.0028,0.90098 0.0086,1.35052 7e-6,5.4e-4 -7e-6,8.8e-4 0,0.002 0.0057,0.44899 0.01478,0.89736 0.02605,1.34501 2.9e-5,8.8e-4 -2.1e-5,0.002 0,0.004 0.01121,0.4471 0.02542,0.89378 0.04257,1.3395 6e-5,0.002 -6.3e-5,0.004 0,0.004 2.074271,54.5729 45.941974,98.44118 100.514882,100.51539 0.002,9e-5 0.004,-3e-5 0.007,0 0.44552,0.0154 0.89204,0.0327 1.33899,0.043 8.8e-4,2e-5 0.002,-4e-5 0.005,0 0.0558,8.8e-4 0.11218,0.002 0.16781,0.005 0.8409,0.0197 1.68406,0.0325 2.5297,0.0325 0.85351,0 1.70453,-0.0135 2.55324,-0.0325 0.49791,-0.0131 0.99512,-0.0257 1.49128,-0.0451 54.57292,-2.07424 98.44115,-45.94248 100.51539,-100.51537 5e-5,-0.002 -6e-5,-0.005 0,-0.005 0.0154,-0.44572 0.0319,-0.8919 0.042,-1.33899 v -0.004 c 8.8e-4,-0.048 0.002,-0.0958 0.002,-0.14377 0.0197,-0.84876 0.0326,-1.70022 0.0326,-2.55375 0,-0.84652 -0.009,-1.68997 -0.0326,-2.5317 -8.8e-4,-0.0561 -0.002,-0.1123 -0.004,-0.16881 -0.0131,-0.44695 -0.0261,-0.89345 -0.043,-1.339 -5e-5,-0.002 7e-5,-0.004 0,-0.007 -2.10972,-55.467388 -47.39286,-99.876515 -103.20862,-100.583532 -5.5e-4,-9e-6 -8.9e-4,6e-6 -0.002,0 -0.33718,-0.0041 -0.67493,-0.0055 -1.01288,-0.0065 -0.11281,-3.57e-4 -0.22537,-0.002 -0.33814,-0.002 z M 65.063386,52.111092 h -0.007 c -0.173931,0.144686 -0.345869,0.291963 -0.518966,0.437814 0.173712,-0.147919 0.351233,-0.290996 0.525978,-0.437814 z m 19.501261,1.839419 c 6.153752,1.16773 12.203432,2.882486 18.049043,5.133544 5.53731,2.072693 10.85777,4.65109 15.9126,7.665252 -2.27083,2.0123 -4.46081,4.117986 -6.5597,6.314744 -10.27326,9.700344 -12.877633,25.220901 -6.81217,37.788759 -0.48478,2.33798 -0.91576,4.68651 -1.30442,7.04109 -20.847988,-2.65862 -42.178653,-1.50618 -62.618424,3.59468 3.34799,-28.650722 19.854327,-53.224974 43.333071,-67.538069 z m 65.837403,0.503937 c -3.53347,19.242202 -1.47816,39.454074 5.81081,57.611622 -2.75174,3.83741 -6.56639,6.90103 -10.90729,8.75978 -6.63832,24.8761 -7.22226,51.21691 -2.43001,76.46417 0.0964,6.95856 -6.08128,13.0941 -13.03424,12.96561 -5.93727,0.13083 -11.43463,-4.29265 -12.81833,-10.02965 -9.66551,-28.94917 -11.29997,-60.51682 -4.67619,-90.30941 -6.03398,-10.009256 -4.11408,-23.899812 4.4107,-31.895805 9.49579,-9.992566 21.02174,-18.034621 33.64455,-23.566317 z M 49.293065,68.560176 c -0.171424,0.223001 -0.341184,0.447764 -0.51095,0.672249 0.169182,-0.224935 0.339993,-0.448766 0.51095,-0.672249 z M 29.548353,112.36412 c -0.029,0.15377 -0.05764,0.30758 -0.08666,0.46135 0.029,-0.15376 0.05702,-0.3079 0.08666,-0.46135 z m 132.069047,3.99643 c 3.17134,7.51317 5.45432,15.4033 6.70447,23.5032 -5.87067,-3.47878 -11.94796,-6.57574 -18.18531,-9.28677 0.35882,-1.69972 0.74141,-3.39373 1.15665,-5.08045 4.03149,-2.28999 7.57041,-5.38149 10.32419,-9.13598 z" />
  </g>
</svg>
