<?xml version="1.0" encoding="UTF-8" standalone="no"?>
<svg
   xmlns:dc="http://purl.org/dc/elements/1.1/"
   xmlns:cc="http://creativecommons.org/ns#"
   xmlns:rdf="http://www.w3.org/1999/02/22-rdf-syntax-ns#"
   xmlns:svg="http://www.w3.org/2000/svg"
   xmlns="http://www.w3.org/2000/svg"
   xmlns:sodipodi="http://sodipodi.sourceforge.net/DTD/sodipodi-0.dtd"
   xmlns:inkscape="http://www.inkscape.org/namespaces/inkscape"
   width="500"
   height="500"
   viewBox="0 0 132.29166 132.29167"
   version="1.1"
   id="svg8"
   sodipodi:docname="creative.svg"
   inkscape:version="1.0.1 (3bc2e813f5, 2020-09-07)">
  <defs
     id="defs2" />
  <sodipodi:namedview
     id="base"
     pagecolor="#ffffff"
     bordercolor="#666666"
     borderopacity="1.0"
     inkscape:pageopacity="0.0"
     inkscape:pageshadow="2"
     inkscape:zoom="0.49497475"
     inkscape:cx="-47.492294"
     inkscape:cy="283.2182"
     inkscape:document-units="px"
     inkscape:current-layer="layer1"
     inkscape:document-rotation="0"
     showgrid="false"
     showguides="true"
     inkscape:snap-intersection-paths="true"
     inkscape:snap-global="true"
     units="px"
     inkscape:window-width="1366"
     inkscape:window-height="705"
     inkscape:window-x="-8"
     inkscape:window-y="-8"
     inkscape:window-maximized="1"
     inkscape:snap-nodes="true"
     inkscape:snap-page="true"
     inkscape:snap-bbox="false" />
  <metadata
     id="metadata5">
    <rdf:RDF>
      <cc:Work
         rdf:about="">
        <dc:format>image/svg+xml</dc:format>
        <dc:type
           rdf:resource="http://purl.org/dc/dcmitype/StillImage" />
        <dc:title />
      </cc:Work>
    </rdf:RDF>
  </metadata>
  <g
     inkscape:label="Layer 1"
     inkscape:groupmode="layer"
     id="layer1">
    <path
       id="rect902"
       style="fill:#4000bd;fill-opacity:1;stroke:none;stroke-width:8.9395;stroke-linecap:round"
       d="m 47.284965,32.693382 a 5.406273,5.406273 0 0 0 -5.404953,5.404952 5.406273,5.406273 0 0 0 5.404953,5.407588 H 85.00611 a 5.406273,5.406273 0 0 0 5.405609,-5.407588 5.406273,5.406273 0 0 0 -5.405609,-5.404952 z m -6.507058,14.766272 a 5.406273,5.406273 0 0 0 -5.407592,5.404953 5.406273,5.406273 0 0 0 5.407592,5.407587 h 50.73856 a 5.406273,5.406273 0 0 0 5.404953,-5.407587 5.406273,5.406273 0 0 0 -5.404953,-5.404953 z m 0,14.763634 a 5.406273,5.406273 0 0 0 -5.407592,5.407591 5.406273,5.406273 0 0 0 5.407592,5.404949 h 50.73856 a 5.406273,5.406273 0 0 0 5.404953,-5.404949 5.406273,5.406273 0 0 0 -5.404953,-5.407591 z m 5.783756,14.766272 a 5.406273,5.406273 0 0 0 -5.40495,5.40759 5.406273,5.406273 0 0 0 5.40495,5.40495 h 3.365063 v 13.6536 H 45.75917 c -3.743842,0 -8.118679,3.27007 -6.757838,6.75785 l 6.757838,17.32027 c 1.360839,3.48776 3.013996,6.75784 6.757839,6.75784 h 27.258376 c 3.743842,0 5.396999,-3.27008 6.757837,-6.75784 l 6.75784,-17.32027 c 1.360839,-3.48778 -3.013996,-6.75785 -6.75784,-6.75785 H 82.365008 V 87.8021 h 3.3644 a 5.406273,5.406273 0 0 0 5.405613,-5.40495 5.406273,5.406273 0 0 0 -5.405613,-5.40759 z M 60.739267,87.8021 h 10.812541 v 13.6536 H 60.739267 Z" />
    <path
       style="color:#000000;font-style:normal;font-variant:normal;font-weight:normal;font-stretch:normal;font-size:medium;line-height:normal;font-family:sans-serif;font-variant-ligatures:normal;font-variant-position:normal;font-variant-caps:normal;font-variant-numeric:normal;font-variant-alternates:normal;font-variant-east-asian:normal;font-feature-settings:normal;font-variation-settings:normal;text-indent:0;text-align:start;text-decoration:none;text-decoration-line:none;text-decoration-style:solid;text-decoration-color:#000000;letter-spacing:normal;word-spacing:normal;text-transform:none;writing-mode:lr-tb;direction:ltr;text-orientation:mixed;dominant-baseline:auto;baseline-shift:baseline;text-anchor:start;white-space:normal;shape-padding:0;shape-margin:0;inline-size:0;clip-rule:nonzero;display:inline;overflow:visible;visibility:visible;isolation:auto;mix-blend-mode:normal;color-interpolation:sRGB;color-interpolation-filters:linearRGB;solid-color:#000000;solid-opacity:1;vector-effect:none;fill:#4000bd;fill-opacity:1;fill-rule:nonzero;stroke:none;stroke-width:7.64563;stroke-linecap:round;stroke-linejoin:miter;stroke-miterlimit:4;stroke-dasharray:none;stroke-dashoffset:0;stroke-opacity:1;color-rendering:auto;image-rendering:auto;shape-rendering:auto;text-rendering:auto;enable-background:accumulate;stop-color:#000000"
       d="M 66.146919,1.4e-6 A 3.8228132,3.8228132 0 0 0 62.3226,3.8221556 V 22.681726 a 3.8228132,3.8228132 0 0 0 3.824319,3.82432 3.8228132,3.8228132 0 0 0 3.822155,-3.82432 V 3.8221556 A 3.8228132,3.8228132 0 0 0 66.146919,1.4e-6 Z"
       id="path962" />
    <path
       style="color:#000000;font-style:normal;font-variant:normal;font-weight:normal;font-stretch:normal;font-size:medium;line-height:normal;font-family:sans-serif;font-variant-ligatures:normal;font-variant-position:normal;font-variant-caps:normal;font-variant-numeric:normal;font-variant-alternates:normal;font-variant-east-asian:normal;font-feature-settings:normal;font-variation-settings:normal;text-indent:0;text-align:start;text-decoration:none;text-decoration-line:none;text-decoration-style:solid;text-decoration-color:#000000;letter-spacing:normal;word-spacing:normal;text-transform:none;writing-mode:lr-tb;direction:ltr;text-orientation:mixed;dominant-baseline:auto;baseline-shift:baseline;text-anchor:start;white-space:normal;shape-padding:0;shape-margin:0;inline-size:0;clip-rule:nonzero;display:inline;overflow:visible;visibility:visible;isolation:auto;mix-blend-mode:normal;color-interpolation:sRGB;color-interpolation-filters:linearRGB;solid-color:#000000;solid-opacity:1;vector-effect:none;fill:#4000bd;fill-opacity:1;fill-rule:nonzero;stroke:none;stroke-width:7.64563;stroke-linecap:round;stroke-linejoin:miter;stroke-miterlimit:4;stroke-dasharray:none;stroke-dashoffset:0;stroke-opacity:1;color-rendering:auto;image-rendering:auto;shape-rendering:auto;text-rendering:auto;enable-background:accumulate;stop-color:#000000"
       d="m 20.491125,13.748929 a 3.8228132,3.8228132 0 0 0 -2.58997,1.117412 3.8228132,3.8228132 0 0 0 0,5.40732 l 13.335312,13.335312 a 3.8228132,3.8228132 0 0 0 5.407319,0 3.8228132,3.8228132 0 0 0 0,-5.405154 L 23.308475,14.866341 a 3.8228132,3.8228132 0 0 0 -2.81735,-1.117412 z"
       id="path966" />
    <path
       style="color:#000000;font-style:normal;font-variant:normal;font-weight:normal;font-stretch:normal;font-size:medium;line-height:normal;font-family:sans-serif;font-variant-ligatures:normal;font-variant-position:normal;font-variant-caps:normal;font-variant-numeric:normal;font-variant-alternates:normal;font-variant-east-asian:normal;font-feature-settings:normal;font-variation-settings:normal;text-indent:0;text-align:start;text-decoration:none;text-decoration-line:none;text-decoration-style:solid;text-decoration-color:#000000;letter-spacing:normal;word-spacing:normal;text-transform:none;writing-mode:lr-tb;direction:ltr;text-orientation:mixed;dominant-baseline:auto;baseline-shift:baseline;text-anchor:start;white-space:normal;shape-padding:0;shape-margin:0;inline-size:0;clip-rule:nonzero;display:inline;overflow:visible;visibility:visible;isolation:auto;mix-blend-mode:normal;color-interpolation:sRGB;color-interpolation-filters:linearRGB;solid-color:#000000;solid-opacity:1;vector-effect:none;fill:#4000bd;fill-opacity:1;fill-rule:nonzero;stroke:none;stroke-width:7.64563;stroke-linecap:round;stroke-linejoin:miter;stroke-miterlimit:4;stroke-dasharray:none;stroke-dashoffset:0;stroke-opacity:1;color-rendering:auto;image-rendering:auto;shape-rendering:auto;text-rendering:auto;enable-background:accumulate;stop-color:#000000"
       d="m 111.57317,13.748929 a 3.8228132,3.8228132 0 0 0 -2.58781,1.117412 L 95.64789,28.203819 a 3.8228132,3.8228132 0 0 0 0,5.405154 3.8228132,3.8228132 0 0 0 5.40732,0 l 13.3353,-13.335312 a 3.8228132,3.8228132 0 0 0 0,-5.40732 3.8228132,3.8228132 0 0 0 -2.81734,-1.117412 z"
       id="path970" />
  </g>
</svg>
