<?xml version="1.0" encoding="UTF-8" standalone="no"?>
<svg
   xmlns:dc="http://purl.org/dc/elements/1.1/"
   xmlns:cc="http://creativecommons.org/ns#"
   xmlns:rdf="http://www.w3.org/1999/02/22-rdf-syntax-ns#"
   xmlns:svg="http://www.w3.org/2000/svg"
   xmlns="http://www.w3.org/2000/svg"
   xmlns:sodipodi="http://sodipodi.sourceforge.net/DTD/sodipodi-0.dtd"
   xmlns:inkscape="http://www.inkscape.org/namespaces/inkscape"
   width="500"
   height="500"
   viewBox="0 0 132.29166 132.29167"
   version="1.1"
   id="svg8"
   sodipodi:docname="minimalist.svg"
   inkscape:version="1.0.1 (3bc2e813f5, 2020-09-07)">
  <defs
     id="defs2" />
  <sodipodi:namedview
     id="base"
     pagecolor="#ffffff"
     bordercolor="#666666"
     borderopacity="1.0"
     inkscape:pageopacity="0.0"
     inkscape:pageshadow="2"
     inkscape:zoom="0.49497475"
     inkscape:cx="-47.492294"
     inkscape:cy="283.2182"
     inkscape:document-units="px"
     inkscape:current-layer="layer1"
     inkscape:document-rotation="0"
     showgrid="false"
     showguides="true"
     inkscape:snap-intersection-paths="true"
     inkscape:snap-global="true"
     units="px"
     inkscape:window-width="1366"
     inkscape:window-height="705"
     inkscape:window-x="-8"
     inkscape:window-y="-8"
     inkscape:window-maximized="1"
     inkscape:snap-nodes="true"
     inkscape:snap-page="true"
     inkscape:snap-bbox="false" />
  <metadata
     id="metadata5">
    <rdf:RDF>
      <cc:Work
         rdf:about="">
        <dc:format>image/svg+xml</dc:format>
        <dc:type
           rdf:resource="http://purl.org/dc/dcmitype/StillImage" />
        <dc:title />
      </cc:Work>
    </rdf:RDF>
  </metadata>
  <g
     inkscape:label="Layer 1"
     inkscape:groupmode="layer"
     id="layer1">
    <g
       style="fill:#4000bd;fill-opacity:1;stroke:none;stroke-width:0.549249;stroke-miterlimit:4;stroke-dasharray:none;stroke-opacity:1"
       transform="matrix(3.8502145,0,0,3.8572919,-422.69357,-418.71771)"
       id="g1239">
      <path
         id="path1215"
         style="color:#000000;font-style:normal;font-variant:normal;font-weight:normal;font-stretch:normal;font-size:medium;line-height:normal;font-family:sans-serif;font-variant-ligatures:normal;font-variant-position:normal;font-variant-caps:normal;font-variant-numeric:normal;font-variant-alternates:normal;font-variant-east-asian:normal;font-feature-settings:normal;font-variation-settings:normal;text-indent:0;text-align:start;text-decoration:none;text-decoration-line:none;text-decoration-style:solid;text-decoration-color:#000000;letter-spacing:normal;word-spacing:normal;text-transform:none;writing-mode:lr-tb;direction:ltr;text-orientation:mixed;dominant-baseline:auto;baseline-shift:baseline;text-anchor:start;white-space:normal;shape-padding:0;shape-margin:0;inline-size:0;clip-rule:nonzero;display:inline;overflow:visible;visibility:visible;isolation:auto;mix-blend-mode:normal;color-interpolation:sRGB;color-interpolation-filters:linearRGB;solid-color:#000000;solid-opacity:1;vector-effect:none;fill:#4000bd;fill-opacity:1;fill-rule:nonzero;stroke:none;stroke-width:0.549249;stroke-linecap:round;stroke-linejoin:round;stroke-miterlimit:4;stroke-dasharray:none;stroke-dashoffset:138;stroke-opacity:1;paint-order:normal;color-rendering:auto;image-rendering:auto;shape-rendering:auto;text-rendering:auto;enable-background:accumulate;stop-color:#000000"
         d="m 119.94813,110.22273 a 1.5999598,1.5999598 0 0 0 -1.5998,1.59979 v 7.90191 c -4.91905,1.06839 -8.56382,5.44821 -8.56391,10.60115 a 1.5999598,1.5999598 0 0 0 0,0.002 c 1.3e-4,5.97673 4.89126,10.85077 10.87736,10.8507 3.87508,-8e-5 7.43441,-2.06087 9.37422,-5.35223 h 12.50549 a 1.6021734,1.5977429 0 0 0 1.38774,-2.39678 l -7.75151,-13.38912 v -8.21729 a 1.5999598,1.5999598 0 0 0 -1.5998,-1.5998 z m 1.59979,3.19959 h 11.43021 v 5.42514 a 1.6021734,1.5977429 0 0 0 -0.14498,0.20914 l -3.33166,5.75468 h -7.95357 v -3.70952 z m 12.67297,9.62877 5.54679,9.57919 h -10.6074 a 1.5999598,1.5999598 0 0 0 -0.0871,-0.002 h -0.39661 z m -15.87256,0.11165 v 3.24834 a 1.5999598,1.5999598 0 0 0 1.5998,1.59979 h 7.7011 l -3.13669,5.41806 a 1.6021734,1.5977429 0 0 0 0.4562,2.0989 1.5999598,1.5999598 0 0 0 4.2e-4,0 1.6021734,1.5977429 0 0 0 0.04,0.0279 1.5999598,1.5999598 0 0 0 4.2e-4,4.3e-4 1.6021734,1.5977429 0 0 0 0.0408,0.0263 1.5999598,1.5999598 0 0 0 4.3e-4,4.3e-4 1.5999598,1.5999598 0 0 0 0.84947,0.24455 h 0.005 c -1.40055,1.32533 -3.23736,2.15093 -5.2435,2.15097 -4.26171,5e-5 -7.67768,-3.41002 -7.67777,-7.65277 5e-5,-3.3941 2.25365,-6.16668 5.36431,-7.16284 z" />
    </g>
  </g>
</svg>
