<?xml version="1.0" encoding="UTF-8" standalone="no"?>
<svg
   xmlns:dc="http://purl.org/dc/elements/1.1/"
   xmlns:cc="http://creativecommons.org/ns#"
   xmlns:rdf="http://www.w3.org/1999/02/22-rdf-syntax-ns#"
   xmlns:svg="http://www.w3.org/2000/svg"
   xmlns="http://www.w3.org/2000/svg"
   xmlns:sodipodi="http://sodipodi.sourceforge.net/DTD/sodipodi-0.dtd"
   xmlns:inkscape="http://www.inkscape.org/namespaces/inkscape"
   width="500"
   height="500"
   viewBox="0 0 132.29166 132.29167"
   version="1.1"
   id="svg8"
   sodipodi:docname="responsive.svg"
   inkscape:version="1.0.1 (3bc2e813f5, 2020-09-07)">
  <defs
     id="defs2" />
  <sodipodi:namedview
     id="base"
     pagecolor="#ffffff"
     bordercolor="#666666"
     borderopacity="1.0"
     inkscape:pageopacity="0.0"
     inkscape:pageshadow="2"
     inkscape:zoom="0.49497475"
     inkscape:cx="-47.492294"
     inkscape:cy="283.2182"
     inkscape:document-units="px"
     inkscape:current-layer="layer1"
     inkscape:document-rotation="0"
     showgrid="false"
     showguides="true"
     inkscape:snap-intersection-paths="true"
     inkscape:snap-global="true"
     units="px"
     inkscape:window-width="1366"
     inkscape:window-height="705"
     inkscape:window-x="-8"
     inkscape:window-y="-8"
     inkscape:window-maximized="1"
     inkscape:snap-nodes="true"
     inkscape:snap-page="true"
     inkscape:snap-bbox="false" />
  <metadata
     id="metadata5">
    <rdf:RDF>
      <cc:Work
         rdf:about="">
        <dc:format>image/svg+xml</dc:format>
        <dc:type
           rdf:resource="http://purl.org/dc/dcmitype/StillImage" />
        <dc:title />
      </cc:Work>
    </rdf:RDF>
  </metadata>
  <g
     inkscape:label="Layer 1"
     inkscape:groupmode="layer"
     id="layer1">
    <path
       id="path851"
       style="color:#000000;font-style:normal;font-variant:normal;font-weight:normal;font-stretch:normal;font-size:medium;line-height:normal;font-family:sans-serif;font-variant-ligatures:normal;font-variant-position:normal;font-variant-caps:normal;font-variant-numeric:normal;font-variant-alternates:normal;font-variant-east-asian:normal;font-feature-settings:normal;font-variation-settings:normal;text-indent:0;text-align:start;text-decoration:none;text-decoration-line:none;text-decoration-style:solid;text-decoration-color:#000000;letter-spacing:normal;word-spacing:normal;text-transform:none;writing-mode:lr-tb;direction:ltr;text-orientation:mixed;dominant-baseline:auto;baseline-shift:baseline;text-anchor:start;white-space:normal;shape-padding:0;shape-margin:0;inline-size:0;clip-rule:nonzero;display:inline;overflow:visible;visibility:visible;isolation:auto;mix-blend-mode:normal;color-interpolation:sRGB;color-interpolation-filters:linearRGB;solid-color:#000000;solid-opacity:1;vector-effect:none;fill:#4000bd;fill-opacity:1;fill-rule:nonzero;stroke:none;stroke-width:6.27709;stroke-linecap:butt;stroke-linejoin:miter;stroke-miterlimit:4;stroke-dasharray:none;stroke-dashoffset:0;stroke-opacity:1;paint-order:stroke markers fill;color-rendering:auto;image-rendering:auto;shape-rendering:auto;text-rendering:auto;enable-background:accumulate;stop-color:#000000"
       d="m 26.632521,52.239114 c -0.09815,2e-6 -0.196007,0.0014 -0.29367,0.0033 -0.01399,2.82e-4 -0.02796,5.05e-4 -0.04194,7.99e-4 -0.09018,0.0021 -0.180156,0.0052 -0.269901,0.009 -0.02151,9.67e-4 -0.04296,0.0019 -0.06445,0.0028 -0.08621,0.0041 -0.172248,0.0089 -0.258052,0.01465 -0.02446,0.0017 -0.04887,0.0035 -0.07331,0.0052 -0.08283,0.0059 -0.165505,0.01228 -0.247933,0.01964 -0.0277,0.0025 -0.05531,0.0053 -0.08295,0.008 -0.06117,0.0059 -0.122221,0.01208 -0.183153,0.01871 -0.05047,0.0054 -0.100837,0.01125 -0.15113,0.01724 -0.051,0.0061 -0.101899,0.01249 -0.152727,0.01918 -0.06256,0.0082 -0.124986,0.01684 -0.187281,0.02583 -0.03962,0.0058 -0.07925,0.01149 -0.118774,0.01757 -0.05419,0.0083 -0.108269,0.01694 -0.162249,0.0259 -2.5052,0.414706 -4.784106,1.498907 -6.647239,3.062739 0.0026,0 0.0047,6.2e-5 0.0072,6.2e-5 -1.235173,1.036426 -2.288019,2.283244 -3.103085,3.684836 0.279774,-0.483764 0.587978,-0.951062 0.923422,-1.397916 -1.248385,1.654229 -2.135882,3.596089 -2.545169,5.708577 0.02968,-0.15172 0.0622,-0.302846 0.097,-0.453455 -0.153999,0.671061 -0.259307,1.360558 -0.312045,2.064484 -1.64e-4,0.0021 -2.82e-4,0.0046 -4.63e-4,0.0069 -0.0046,0.06286 -0.0089,0.125795 -0.01272,0.188878 -0.0017,0.02712 -0.0032,0.05416 -0.0046,0.0813 -0.0035,0.06404 -0.0067,0.128198 -0.0093,0.192473 -6.31e-4,0.01431 -0.0014,0.02871 -0.0019,0.04307 -5.7e-5,0.0018 -7.8e-5,0.0031 -1.29e-4,0.0046 -0.0028,0.07602 -0.0049,0.15223 -0.0067,0.228557 -4.21e-4,0.02052 -7.99e-4,0.04106 -0.0011,0.06159 -0.0014,0.0806 -0.0024,0.161286 -0.0024,0.242207 0,0.05992 3.86e-4,0.119746 0.0011,0.179492 0,6.3e-5 -10e-7,1.17e-4 0,2.35e-4 7.57e-4,0.05967 0.002,0.119265 0.0035,0.17876 4e-6,1.17e-4 -4e-6,2.35e-4 0,5.89e-4 0.0015,0.05943 0.0033,0.118789 0.0057,0.178027 8e-6,2.34e-4 -9e-6,5.89e-4 0,5.89e-4 0.275684,7.253067 6.105977,13.083439 13.359061,13.359115 2.34e-4,8e-6 5.89e-4,-9e-6 9.67e-4,0 0.05922,0.0021 0.118558,0.0043 0.17796,0.0057 1.16e-4,0 2.35e-4,-9e-6 7.15e-4,0 0.0074,1.13e-4 0.01491,2.35e-4 0.0223,8.41e-4 0.111761,0.0025 0.223822,0.0043 0.336213,0.0043 0.113438,0 0.226544,-0.0017 0.339343,-0.0043 0.06618,-0.0017 0.132256,-0.0034 0.1982,-0.006 7.253084,-0.275679 13.083445,-6.106047 13.359129,-13.359127 4e-6,-2.35e-4 -9e-6,-7.15e-4 0,-7.15e-4 0.0021,-0.05924 0.0042,-0.118538 0.0056,-0.17796 v -5.88e-4 c 1.18e-4,-0.0064 2.32e-4,-0.01273 2.32e-4,-0.01912 0.0025,-0.112807 0.0043,-0.22597 0.0043,-0.339409 0,-0.112509 -0.0013,-0.224609 -0.0043,-0.336479 -1.14e-4,-0.0074 -2.32e-4,-0.01493 -4.21e-4,-0.02244 -0.0017,-0.0594 -0.0034,-0.118746 -0.0057,-0.177962 -8e-6,-2.34e-4 9e-6,-5.88e-4 0,-9.67e-4 -0.280397,-7.371931 -6.298809,-13.274183 -13.717075,-13.36815 -6.2e-5,-2e-6 -1.18e-4,0 -2.35e-4,0 -0.04482,-5.47e-4 -0.0897,-7.57e-4 -0.134618,-8.83e-4 -0.01499,-4.8e-5 -0.02995,-2.7e-4 -0.04494,-2.7e-4 z m -8.934756,3.250752 h -9.68e-4 c -0.02311,0.01922 -0.04597,0.0388 -0.06897,0.05819 0.02308,-0.01966 0.04668,-0.03868 0.06991,-0.05819 z m 2.59184,0.24447 c 0.817872,0.155199 1.621912,0.3831 2.398832,0.682281 0.735943,0.275474 1.443065,0.618159 2.114883,1.018759 -0.301806,0.267448 -0.592869,0.547306 -0.871824,0.83927 -1.365382,1.289236 -1.71152,3.352016 -0.905381,5.022363 -0.06443,0.310733 -0.12171,0.622866 -0.173366,0.935805 -2.770828,-0.353347 -5.605807,-0.20018 -8.322381,0.477756 0.444968,-3.80786 2.638764,-7.073933 5.759237,-8.976234 z m 8.750205,0.06697 c -0.46962,2.557411 -0.196457,5.243695 0.772294,7.656949 -0.365724,0.510014 -0.872715,0.917189 -1.449648,1.164227 -0.882275,3.306191 -0.959884,6.807051 -0.322963,10.16257 0.01281,0.924836 -0.808242,1.740288 -1.732333,1.723212 -0.7891,0.01737 -1.519735,-0.570521 -1.703637,-1.333003 -1.284607,-3.847527 -1.501838,-8.043067 -0.621496,-12.00269 -0.801953,-1.330292 -0.546786,-3.176435 0.586211,-4.239153 1.262051,-1.328074 2.793922,-2.396914 4.471572,-3.132112 z m -13.438021,1.874742 c -0.02278,0.02964 -0.04534,0.05951 -0.06791,0.08935 0.02249,-0.0299 0.04519,-0.05965 0.06791,-0.08935 z m -2.624196,5.82182 c -0.0039,0.02044 -0.0077,0.04089 -0.01152,0.06132 0.0039,-0.02044 0.0075,-0.04093 0.01152,-0.06132 z m 17.552808,0.531151 c 0.421492,0.998547 0.724914,2.047196 0.891067,3.123722 -0.78025,-0.462351 -1.58796,-0.873957 -2.416943,-1.234269 0.04768,-0.225904 0.09853,-0.451049 0.153727,-0.675224 0.535809,-0.304354 1.006155,-0.715235 1.372149,-1.214229 z" />
    <path
       id="path841"
       style="color:#000000;font-style:normal;font-variant:normal;font-weight:normal;font-stretch:normal;font-size:medium;line-height:normal;font-family:sans-serif;font-variant-ligatures:normal;font-variant-position:normal;font-variant-caps:normal;font-variant-numeric:normal;font-variant-alternates:normal;font-variant-east-asian:normal;font-feature-settings:normal;font-variation-settings:normal;text-indent:0;text-align:start;text-decoration:none;text-decoration-line:none;text-decoration-style:solid;text-decoration-color:#000000;letter-spacing:normal;word-spacing:normal;text-transform:none;writing-mode:lr-tb;direction:ltr;text-orientation:mixed;dominant-baseline:auto;baseline-shift:baseline;text-anchor:start;white-space:normal;shape-padding:0;shape-margin:0;inline-size:0;clip-rule:nonzero;display:inline;overflow:visible;visibility:visible;isolation:auto;mix-blend-mode:normal;color-interpolation:sRGB;color-interpolation-filters:linearRGB;solid-color:#000000;solid-opacity:1;vector-effect:none;fill:#4000bd;fill-opacity:1;fill-rule:nonzero;stroke:none;stroke-width:5.68326;stroke-linecap:round;stroke-linejoin:miter;stroke-miterlimit:4;stroke-dasharray:none;stroke-dashoffset:0;stroke-opacity:1;color-rendering:auto;image-rendering:auto;shape-rendering:auto;text-rendering:auto;enable-background:accumulate;stop-color:#000000"
       d="M 31.355511,0 C 24.907519,0 19.607497,5.284191 19.607497,11.71372 v 12.402873 h 6.910707 V 11.71372 c 0,-2.731582 2.0979,-4.822818 4.837307,-4.822818 h 87.063359 c 2.73943,0 4.83731,2.091219 4.83731,4.822818 v 108.8636 c 0,2.73161 -2.09786,4.82344 -4.83731,4.82344 H 31.355511 c -2.73941,0 -4.837307,-2.09186 -4.837307,-4.82344 v -12.401 h -6.910707 v 12.401 c 0,6.42952 5.300025,11.71434 11.748014,11.71434 h 87.063359 c 6.448,0 11.74737,-5.28483 11.74737,-11.71434 V 11.71372 C 130.16624,5.284208 124.86686,0 118.41887,0 Z" />
    <path
       id="path990"
       style="fill:#4000bd;fill-opacity:1;stroke-width:1.42081;stroke-linecap:round;stroke-miterlimit:4;stroke-dasharray:none"
       d="m 72.596552,6.397302 h 4.580246 v 2.834927 a 2.2900938,2.2916211 0 0 1 -2.289938,2.291583 2.2900938,2.2916211 0 0 1 -2.290308,-2.291583 2.2900938,2.2916211 0 0 1 0,-0.0092 z m 2.30101,1.46019 a 1.3740561,1.3749723 0 0 0 -0.01058,0 1.3740561,1.3749723 0 0 0 -1.374036,1.374737 1.3740561,1.3749723 0 0 0 1.374036,1.37509 1.3740561,1.3749723 0 0 0 1.374037,-1.37509 1.3740561,1.3749723 0 0 0 -1.36331,-1.374737 z" />
    <path
       style="color:#000000;font-style:normal;font-variant:normal;font-weight:normal;font-stretch:normal;font-size:medium;line-height:normal;font-family:sans-serif;font-variant-ligatures:normal;font-variant-position:normal;font-variant-caps:normal;font-variant-numeric:normal;font-variant-alternates:normal;font-variant-east-asian:normal;font-feature-settings:normal;font-variation-settings:normal;text-indent:0;text-align:start;text-decoration:none;text-decoration-line:none;text-decoration-style:solid;text-decoration-color:#000000;letter-spacing:normal;word-spacing:normal;text-transform:none;writing-mode:lr-tb;direction:ltr;text-orientation:mixed;dominant-baseline:auto;baseline-shift:baseline;text-anchor:start;white-space:normal;shape-padding:0;shape-margin:0;inline-size:0;clip-rule:nonzero;display:inline;overflow:visible;visibility:visible;isolation:auto;mix-blend-mode:normal;color-interpolation:sRGB;color-interpolation-filters:linearRGB;solid-color:#000000;solid-opacity:1;vector-effect:none;fill:#4000bd;fill-opacity:1;fill-rule:nonzero;stroke:none;stroke-width:3.40994;stroke-linecap:round;stroke-linejoin:miter;stroke-miterlimit:4;stroke-dasharray:none;stroke-dashoffset:0;stroke-opacity:1;color-rendering:auto;image-rendering:auto;shape-rendering:auto;text-rendering:auto;enable-background:accumulate;stop-color:#000000;stop-opacity:1;opacity:1"
       d="M 12.123047 22.412109 C 6.6168823 22.412109 2.125 26.886525 2.125 32.384766 L 2.125 99.908203 C 2.125 105.40644 6.6168853 109.88086 12.123047 109.88086 L 41.144531 109.88086 C 46.650673 109.88086 51.140625 105.40644 51.140625 99.908203 L 51.140625 32.384766 C 51.140625 26.88652 46.650676 22.412109 41.144531 22.412109 L 12.123047 22.412109 z M 12.123047 25.822266 L 41.144531 25.822266 C 44.825791 25.822266 47.730469 28.721907 47.730469 32.384766 L 47.730469 99.908203 C 47.730469 103.57105 44.825794 106.4707 41.144531 106.4707 L 12.123047 106.4707 C 8.4417545 106.4707 5.5351563 103.57106 5.5351562 99.908203 L 5.5351562 32.384766 C 5.5351562 28.721902 8.4417575 25.822266 12.123047 25.822266 z "
       id="path863" />
    <path
       id="rect837"
       style="fill:#4000bd;fill-opacity:1;stroke-width:1.42081;stroke-linecap:round;stroke-miterlimit:4;stroke-dasharray:none"
       d="m 24.34288,25.695234 h 4.580304 v 2.834927 a 2.2900938,2.2916211 0 0 1 -2.289965,2.291582 2.2900938,2.2916211 0 0 1 -2.290339,-2.291582 2.2900938,2.2916211 0 0 1 0,-0.0092 z m 2.301068,1.460191 a 1.3740561,1.3749723 0 0 0 -0.01058,0 1.3740561,1.3749723 0 0 0 -1.374037,1.374736 1.3740561,1.3749723 0 0 0 1.374037,1.375092 1.3740561,1.3749723 0 0 0 1.374063,-1.375092 1.3740561,1.3749723 0 0 0 -1.363335,-1.374736 z" />
    <path
       id="path2936"
       style="color:#000000;font-style:normal;font-variant:normal;font-weight:normal;font-stretch:normal;font-size:medium;line-height:normal;font-family:sans-serif;font-variant-ligatures:normal;font-variant-position:normal;font-variant-caps:normal;font-variant-numeric:normal;font-variant-alternates:normal;font-variant-east-asian:normal;font-feature-settings:normal;font-variation-settings:normal;text-indent:0;text-align:start;text-decoration:none;text-decoration-line:none;text-decoration-style:solid;text-decoration-color:#000000;letter-spacing:normal;word-spacing:normal;text-transform:none;writing-mode:lr-tb;direction:ltr;text-orientation:mixed;dominant-baseline:auto;baseline-shift:baseline;text-anchor:start;white-space:normal;shape-padding:0;shape-margin:0;inline-size:0;clip-rule:nonzero;display:inline;overflow:visible;visibility:visible;isolation:auto;mix-blend-mode:normal;color-interpolation:sRGB;color-interpolation-filters:linearRGB;solid-color:#000000;solid-opacity:1;vector-effect:none;fill:#4000bd;fill-opacity:1;fill-rule:nonzero;stroke:none;stroke-width:23.7245;stroke-linecap:butt;stroke-linejoin:miter;stroke-miterlimit:4;stroke-dasharray:none;stroke-dashoffset:0;stroke-opacity:1;paint-order:stroke markers fill;color-rendering:auto;image-rendering:auto;shape-rendering:auto;text-rendering:auto;enable-background:accumulate;stop-color:#000000"
       d="M 299.625 125.00195 C 298.74286 125.00197 297.86414 125.01386 296.98633 125.03125 C 296.86058 125.03378 296.73504 125.03642 296.60938 125.03906 C 295.79886 125.05796 294.99024 125.08433 294.18359 125.11914 C 293.99027 125.12783 293.79667 125.13659 293.60352 125.14453 C 292.82863 125.18157 292.05638 125.22406 291.28516 125.27539 C 291.0653 125.29051 290.84469 125.30719 290.625 125.32227 C 289.88051 125.37503 289.13737 125.43386 288.39648 125.5 C 288.14753 125.52268 287.90077 125.54669 287.65234 125.57031 C 287.1025 125.62307 286.55353 125.67868 286.00586 125.73828 C 285.55224 125.78711 285.09853 125.84067 284.64648 125.89453 C 284.18806 125.94964 283.73029 126.00631 283.27344 126.06641 C 282.71115 126.14041 282.15171 126.21802 281.5918 126.29883 C 281.23565 126.3508 280.87871 126.40238 280.52344 126.45703 C 280.03635 126.53183 279.54963 126.60891 279.06445 126.68945 C 256.54726 130.41691 236.06454 140.16274 219.31836 154.21875 C 219.34179 154.21875 219.36078 154.21875 219.38281 154.21875 C 209.6686 162.36989 201.20881 171.96778 194.33789 182.67969 C 193.88357 183.38798 193.43838 184.10239 192.99805 184.82031 C 193.43616 184.10138 193.88559 183.38975 194.33789 182.67969 C 196.05861 179.97836 197.8684 177.3346 199.79102 174.77344 C 194.80104 181.38563 190.45797 188.51242 186.84375 196.05469 L 186.84375 303.94141 C 206.32608 344.60128 247.14091 373.09306 294.79492 374.9043 C 294.79702 374.90437 294.80129 374.90422 294.80469 374.9043 C 295.33697 374.92319 295.87039 374.94261 296.4043 374.95508 C 296.40534 374.95508 296.40584 374.955 296.41016 374.95508 C 296.47709 374.9561 296.54293 374.95745 296.60938 374.96289 C 297.6139 374.98557 298.62262 375.00195 299.63281 375.00195 C 300.65241 375.00195 301.66778 374.98632 302.68164 374.96289 C 303.27644 374.94777 303.87018 374.93164 304.46289 374.9082 C 369.65495 372.43034 422.06117 320.026 424.53906 254.83398 C 424.5391 254.83187 424.53899 254.82812 424.53906 254.82812 C 424.55796 254.29568 424.57542 253.76261 424.58789 253.22852 L 424.58789 253.22266 C 424.58895 253.16517 424.58984 253.10819 424.58984 253.05078 C 424.61252 252.03685 424.62891 251.02157 424.62891 250.00195 C 424.62891 248.9907 424.61706 247.98208 424.58984 246.97656 C 424.58882 246.90963 424.58764 246.84289 424.58594 246.77539 C 424.57082 246.24145 424.55594 245.70802 424.53516 245.17578 C 424.53508 245.17368 424.53523 245.16942 424.53516 245.16602 C 422.01489 178.90574 367.92088 125.85631 301.24414 125.01172 C 301.24414 125.01172 301.24219 125.01172 301.24219 125.01172 C 300.83935 125.00681 300.43495 125.00504 300.03125 125.00391 C 299.89651 125.00348 299.76363 125.00195 299.62891 125.00195 L 299.625 125.00195 z M 219.31836 154.21875 L 219.31055 154.21875 C 219.10279 154.39155 218.89614 154.56793 218.68945 154.74219 C 218.89691 154.56549 219.10954 154.3941 219.31836 154.21875 z M 242.61523 156.41602 C 249.96642 157.81097 257.19268 159.85974 264.17578 162.54883 C 270.79057 165.02485 277.14712 168.10441 283.18555 171.70508 C 280.47286 174.10895 277.85495 176.62578 275.34766 179.25 C 263.07536 190.83789 259.96521 209.37723 267.21094 224.39062 C 266.6318 227.18355 266.11664 229.98998 265.65234 232.80273 C 240.74763 229.62679 215.26667 231.00424 190.84961 237.09766 C 194.84907 202.87191 214.56784 173.51425 242.61523 156.41602 z M 321.26367 157.01953 C 317.04264 180.00601 319.49777 204.14908 328.20508 225.83984 C 324.91789 230.42395 320.36136 234.08426 315.17578 236.30469 C 307.24574 266.02134 306.54672 297.48842 312.27148 327.64844 C 312.38661 335.96104 305.00707 343.29021 296.70117 343.13672 C 289.60859 343.29281 283.04162 338.00957 281.38867 331.15625 C 269.84239 296.57397 267.89006 258.86325 275.80273 223.27344 C 268.59463 211.31652 270.88868 194.72183 281.07227 185.16992 C 292.41581 173.23295 306.18465 163.62763 321.26367 157.01953 z M 200.48047 173.86914 C 200.27573 174.13552 200.07198 174.4037 199.86914 174.67188 C 200.07127 174.40311 200.27622 174.13605 200.48047 173.86914 z M 334.66016 230.9707 C 338.4486 239.94583 341.1765 249.37086 342.66992 259.04688 C 335.65689 254.89118 328.39636 251.19167 320.94531 247.95312 C 321.3739 245.92265 321.83204 243.8997 322.32812 241.88477 C 327.14408 239.14918 331.37053 235.45576 334.66016 230.9707 z "
       transform="scale(0.26458333)" />
  </g>
</svg>
