<?xml version="1.0" encoding="UTF-8" standalone="no"?>
<svg
   xmlns:dc="http://purl.org/dc/elements/1.1/"
   xmlns:cc="http://creativecommons.org/ns#"
   xmlns:rdf="http://www.w3.org/1999/02/22-rdf-syntax-ns#"
   xmlns:svg="http://www.w3.org/2000/svg"
   xmlns="http://www.w3.org/2000/svg"
   xmlns:sodipodi="http://sodipodi.sourceforge.net/DTD/sodipodi-0.dtd"
   xmlns:inkscape="http://www.inkscape.org/namespaces/inkscape"
   width="500"
   height="500"
   viewBox="0 0 132.29166 132.29167"
   version="1.1"
   id="svg8"
   sodipodi:docname="unique.svg"
   inkscape:version="1.0.1 (3bc2e813f5, 2020-09-07)">
  <defs
     id="defs2" />
  <sodipodi:namedview
     id="base"
     pagecolor="#ffffff"
     bordercolor="#666666"
     borderopacity="1.0"
     inkscape:pageopacity="0.0"
     inkscape:pageshadow="2"
     inkscape:zoom="0.49497475"
     inkscape:cx="224.15659"
     inkscape:cy="373.60582"
     inkscape:document-units="px"
     inkscape:current-layer="layer1"
     inkscape:document-rotation="0"
     showgrid="false"
     showguides="true"
     inkscape:snap-intersection-paths="true"
     inkscape:snap-global="true"
     units="px"
     inkscape:window-width="1366"
     inkscape:window-height="705"
     inkscape:window-x="-8"
     inkscape:window-y="-8"
     inkscape:window-maximized="1"
     inkscape:snap-nodes="false"
     inkscape:snap-page="true"
     inkscape:snap-bbox="true"
     inkscape:bbox-nodes="true" />
  <metadata
     id="metadata5">
    <rdf:RDF>
      <cc:Work
         rdf:about="">
        <dc:format>image/svg+xml</dc:format>
        <dc:type
           rdf:resource="http://purl.org/dc/dcmitype/StillImage" />
        <dc:title></dc:title>
      </cc:Work>
    </rdf:RDF>
  </metadata>
  <g
     inkscape:label="Layer 1"
     inkscape:groupmode="layer"
     id="layer1">
    <g
       id="g961"
       transform="translate(0.5489075,0.5444025)">
      <path
         id="path863"
         style="opacity:0.327869;fill:#4000bd;fill-opacity:1;stroke:none;stroke-width:3.175;stroke-linecap:round;stroke-linejoin:round;stroke-miterlimit:5.08"
         d="m 88.648724,60.888095 h 8.756791 c 3.826485,0 6.907025,3.080522 6.907025,6.906999 v 11.146661 c 0,3.826485 -3.08054,6.907015 -6.907025,6.907015 h -8.756791 c -3.826495,0 -6.907018,-3.08053 -6.907018,-6.907015 V 67.795094 c 0,-3.826474 3.080523,-6.906996 6.907018,-6.906999 z m 11.547936,-8.36447 a 7.1695503,7.1695503 0 0 1 -7.169535,7.169548 7.1695503,7.1695503 0 0 1 -7.169558,-7.169548 7.1695503,7.1695503 0 0 1 7.169558,-7.169551 7.1695503,7.1695503 0 0 1 7.169535,7.169551 z" />
      <path
         id="path887"
         style="opacity:0.327869;fill:#4000bd;fill-opacity:1;stroke:none;stroke-width:3.175;stroke-linecap:round;stroke-linejoin:round;stroke-miterlimit:5.08"
         d="M 42.545105,60.888095 H 33.78831 c -3.826485,0 -6.907016,3.080522 -6.907016,6.906999 v 11.146661 c 0,3.826485 3.080531,6.907015 6.907016,6.907015 h 8.756795 c 3.826491,0 6.907013,-3.08053 6.907013,-6.907015 V 67.795094 c 0,-3.826474 -3.080522,-6.906996 -6.907013,-6.906999 z m -11.547952,-8.36447 a 7.1695503,7.1695503 0 0 0 7.169549,7.169548 7.1695503,7.1695503 0 0 0 7.169558,-7.169548 7.1695503,7.1695503 0 0 0 -7.169558,-7.169551 7.1695503,7.1695503 0 0 0 -7.169549,7.169551 z" />
      <path
         id="path889"
         style="opacity:0.327869;fill:#4000bd;fill-opacity:1;stroke:none;stroke-width:3.175;stroke-linecap:round;stroke-linejoin:round;stroke-miterlimit:5.08"
         d="m 61.218501,106.24219 h 8.756808 c 3.82648,0 6.907003,3.08052 6.907003,6.907 v 11.14665 c 0,3.8265 -3.080523,6.90702 -6.907003,6.90702 h -8.756808 c -3.82648,0 -6.907004,-3.08052 -6.907004,-6.90702 v -11.14665 c 0,-3.82648 3.080524,-6.907 6.907004,-6.907 z m 11.547957,-8.364472 a 7.1695525,7.1695525 0 0 1 -7.169552,7.169552 7.1695525,7.1695525 0 0 1 -7.169553,-7.169552 7.1695525,7.1695525 0 0 1 7.169553,-7.169555 7.1695525,7.1695525 0 0 1 7.169552,7.169555 z" />
      <path
         id="path891"
         style="opacity:0.327869;fill:#4000bd;fill-opacity:1;stroke:none;stroke-width:3.175;stroke-linecap:round;stroke-linejoin:round;stroke-miterlimit:5.08"
         d="m 88.648724,106.24218 h 8.756791 c 3.826485,0 6.907025,3.08053 6.907025,6.907 v 11.14666 c 0,3.8265 -3.08054,6.90702 -6.907025,6.90702 h -8.756791 c -3.826495,0 -6.907018,-3.08052 -6.907018,-6.90702 v -11.14666 c 0,-3.82647 3.080523,-6.90699 6.907018,-6.907 z m 11.547936,-8.364462 a 7.1695503,7.1695503 0 0 1 -7.169535,7.169542 7.1695503,7.1695503 0 0 1 -7.169558,-7.169542 7.1695503,7.1695503 0 0 1 7.169558,-7.169555 7.1695503,7.1695503 0 0 1 7.169535,7.169555 z" />
      <path
         id="path893"
         style="opacity:0.327869;fill:#4000bd;fill-opacity:1;stroke:none;stroke-width:3.175;stroke-linecap:round;stroke-linejoin:round;stroke-miterlimit:5.08"
         d="M 42.545105,106.24218 H 33.78831 c -3.826485,0 -6.907016,3.08053 -6.907016,6.907 v 11.14666 c 0,3.8265 3.080531,6.90702 6.907016,6.90702 h 8.756795 c 3.826491,0 6.907013,-3.08052 6.907013,-6.90702 v -11.14666 c 0,-3.82647 -3.080522,-6.90699 -6.907013,-6.907 z M 30.997153,97.877718 a 7.1695503,7.1695503 0 0 0 7.169549,7.169542 7.1695503,7.1695503 0 0 0 7.169558,-7.169542 7.1695503,7.1695503 0 0 0 -7.169558,-7.169555 7.1695503,7.1695503 0 0 0 -7.169549,7.169555 z" />
      <path
         id="path895"
         style="opacity:0.327869;fill:#4000bd;fill-opacity:1;stroke:none;stroke-width:3.175;stroke-linecap:round;stroke-linejoin:round;stroke-miterlimit:5.08"
         d="m 61.218501,15.534049 h 8.756808 c 3.82648,0 6.907003,3.080527 6.907003,6.907011 v 11.146649 c 0,3.826474 -3.080523,6.907009 -6.907003,6.907009 h -8.756808 c -3.82648,0 -6.907004,-3.080535 -6.907004,-6.907009 V 22.44106 c 0,-3.826484 3.080524,-6.907011 6.907004,-6.907011 z M 72.766458,7.1695527 A 7.1695525,7.1695525 0 0 1 65.596906,14.339126 7.1695525,7.1695525 0 0 1 58.427353,7.1695527 7.1695525,7.1695525 0 0 1 65.596906,0 7.1695525,7.1695525 0 0 1 72.766458,7.1695527 Z" />
      <path
         id="path897"
         style="opacity:0.327869;fill:#4000bd;fill-opacity:1;stroke:none;stroke-width:3.175;stroke-linecap:round;stroke-linejoin:round;stroke-miterlimit:5.08"
         d="m 88.648724,15.534049 h 8.756791 c 3.826485,0 6.907025,3.080527 6.907025,6.907001 v 11.146659 c 0,3.826474 -3.08054,6.907009 -6.907025,6.907009 h -8.756791 c -3.826495,0 -6.907018,-3.080535 -6.907018,-6.907009 V 22.44105 c 0,-3.826474 3.080523,-6.907001 6.907018,-6.907001 z M 100.19666,7.1695527 A 7.1695503,7.1695503 0 0 1 93.027125,14.339126 7.1695503,7.1695503 0 0 1 85.857567,7.1695527 7.1695503,7.1695503 0 0 1 93.027125,0 7.1695503,7.1695503 0 0 1 100.19666,7.1695527 Z" />
      <path
         id="path899"
         style="opacity:0.327869;fill:#4000bd;fill-opacity:1;stroke:none;stroke-width:3.175;stroke-linecap:round;stroke-linejoin:round;stroke-miterlimit:5.08"
         d="M 42.545105,15.534049 H 33.78831 c -3.826485,0 -6.907016,3.080527 -6.907016,6.907001 v 11.146659 c 0,3.826474 3.080531,6.907009 6.907016,6.907009 h 8.756795 c 3.826491,0 6.907013,-3.080535 6.907013,-6.907009 V 22.44105 c 0,-3.826474 -3.080522,-6.907001 -6.907013,-6.907001 z M 30.997153,7.1695527 A 7.1695503,7.1695503 0 0 0 38.166702,14.339126 7.1695503,7.1695503 0 0 0 45.33626,7.1695527 7.1695503,7.1695503 0 0 0 38.166702,0 7.1695503,7.1695503 0 0 0 30.997153,7.1695527 Z" />
      <path
         id="path927"
         style="opacity:0.327869;fill:#4000bd;fill-opacity:1;stroke:none;stroke-width:3.175;stroke-linecap:round;stroke-linejoin:round;stroke-miterlimit:5.08"
         d="m 116.07895,60.888095 h 8.75679 c 3.82648,0 6.90702,3.080522 6.90702,6.906999 v 11.146661 c 0,3.826485 -3.08054,6.907015 -6.90702,6.907015 h -8.75679 c -3.8265,0 -6.90702,-3.08053 -6.90702,-6.907015 V 67.795094 c 0,-3.826474 3.08052,-6.906996 6.90702,-6.906999 z m 11.54795,-8.36447 a 7.1695503,7.1695503 0 0 1 -7.16955,7.169548 7.1695503,7.1695503 0 0 1 -7.16955,-7.169548 7.1695503,7.1695503 0 0 1 7.16955,-7.169551 7.1695503,7.1695503 0 0 1 7.16955,7.169551 z" />
      <path
         id="path931"
         style="opacity:0.327869;fill:#4000bd;fill-opacity:1;stroke:none;stroke-width:3.175;stroke-linecap:round;stroke-linejoin:round;stroke-miterlimit:5.08"
         d="m 116.07895,106.24218 h 8.75679 c 3.82648,0 6.90702,3.08053 6.90702,6.907 v 11.14666 c 0,3.8265 -3.08054,6.90702 -6.90702,6.90702 h -8.75679 c -3.8265,0 -6.90702,-3.08052 -6.90702,-6.90702 v -11.14666 c 0,-3.82647 3.08052,-6.90699 6.90702,-6.907 z m 11.54795,-8.364462 a 7.1695503,7.1695503 0 0 1 -7.16955,7.169542 7.1695503,7.1695503 0 0 1 -7.16955,-7.169542 7.1695503,7.1695503 0 0 1 7.16955,-7.169555 7.1695503,7.1695503 0 0 1 7.16955,7.169555 z" />
      <path
         id="path935"
         style="opacity:0.327869;fill:#4000bd;fill-opacity:1;stroke:none;stroke-width:3.175;stroke-linecap:round;stroke-linejoin:round;stroke-miterlimit:5.08"
         d="m 116.07895,15.534049 h 8.75679 c 3.82648,0 6.90702,3.080527 6.90702,6.907001 v 11.146659 c 0,3.826474 -3.08054,6.907009 -6.90702,6.907009 h -8.75679 c -3.8265,0 -6.90702,-3.080535 -6.90702,-6.907009 V 22.44105 c 0,-3.826474 3.08052,-6.907001 6.90702,-6.907001 z M 127.6269,7.1695527 A 7.1695503,7.1695503 0 0 1 120.45735,14.339126 7.1695503,7.1695503 0 0 1 113.2878,7.1695527 7.1695503,7.1695503 0 0 1 120.45735,0 7.1695503,7.1695503 0 0 1 127.6269,7.1695527 Z" />
      <path
         id="path937"
         style="opacity:0.327869;fill:#4000bd;fill-opacity:1;stroke:none;stroke-width:3.175;stroke-linecap:round;stroke-linejoin:round;stroke-miterlimit:5.08"
         d="M 15.114901,60.888095 H 6.3581054 c -3.8264846,0 -6.9070154,3.080522 -6.9070154,6.906999 v 11.146661 c 0,3.826485 3.0805308,6.907015 6.9070154,6.907015 h 8.7567956 c 3.826492,0 6.907014,-3.08053 6.907014,-6.907015 V 67.795094 c 0,-3.826474 -3.080522,-6.906996 -6.907014,-6.906999 z M 3.5669481,52.523625 a 7.1695503,7.1695503 0 0 0 7.1695499,7.169548 7.1695503,7.1695503 0 0 0 7.169559,-7.169548 7.1695503,7.1695503 0 0 0 -7.169559,-7.169551 7.1695503,7.1695503 0 0 0 -7.1695499,7.169551 z" />
      <path
         id="path941"
         style="opacity:0.327869;fill:#4000bd;fill-opacity:1;stroke:none;stroke-width:3.175;stroke-linecap:round;stroke-linejoin:round;stroke-miterlimit:5.08"
         d="M 15.114901,106.24218 H 6.3581054 c -3.8264846,0 -6.9070154,3.08053 -6.9070154,6.907 v 11.14666 c 0,3.8265 3.0805308,6.90702 6.9070154,6.90702 h 8.7567956 c 3.826492,0 6.907014,-3.08052 6.907014,-6.90702 v -11.14666 c 0,-3.82647 -3.080522,-6.90699 -6.907014,-6.907 z M 3.5669481,97.877718 a 7.1695503,7.1695503 0 0 0 7.1695499,7.169542 7.1695503,7.1695503 0 0 0 7.169559,-7.169542 7.1695503,7.1695503 0 0 0 -7.169559,-7.169555 7.1695503,7.1695503 0 0 0 -7.1695499,7.169555 z" />
      <path
         id="path945"
         style="opacity:0.327869;fill:#4000bd;fill-opacity:1;stroke:none;stroke-width:3.175;stroke-linecap:round;stroke-linejoin:round;stroke-miterlimit:5.08"
         d="M 15.114901,15.534049 H 6.3581054 c -3.8264846,0 -6.9070154,3.080527 -6.9070154,6.907001 v 11.146659 c 0,3.826474 3.0805308,6.907009 6.9070154,6.907009 h 8.7567956 c 3.826492,0 6.907014,-3.080535 6.907014,-6.907009 V 22.44105 c 0,-3.826474 -3.080522,-6.907001 -6.907014,-6.907001 z M 3.5669481,7.1695527 A 7.1695503,7.1695503 0 0 0 10.736498,14.339126 7.1695503,7.1695503 0 0 0 17.906057,7.1695527 7.1695503,7.1695503 0 0 0 10.736498,0 7.1695503,7.1695503 0 0 0 3.5669481,7.1695527 Z" />
    </g>
    <path
       id="path861"
       style="fill:#4000bd;fill-opacity:1;stroke:none;stroke-width:3.17501;stroke-linecap:round;stroke-linejoin:round;stroke-miterlimit:5.08"
       d="m 54.702825,53.82752 h 22.886013 c 10.000546,0 18.051528,8.050981 18.051528,18.051526 v 29.131894 c 0,10.00055 -8.050982,18.05156 -18.051528,18.05156 H 54.702825 c -10.000546,0 -18.051526,-8.05101 -18.051526,-18.05156 V 71.879046 c 0,-10.000545 8.05098,-18.051525 18.051526,-18.051526 z m 30.18071,-21.860651 a 18.737703,18.737703 0 0 1 -18.7377,18.737705 18.737703,18.737703 0 0 1 -18.737702,-18.737705 18.737703,18.737703 0 0 1 18.737702,-18.737701 18.737703,18.737703 0 0 1 18.7377,18.737701 z" />
  </g>
</svg>
